<?xml version="1.0" standalone="no"?>
<!DOCTYPE svg PUBLIC "-//W3C//DTD SVG 20010904//EN"
 "http://www.w3.org/TR/2001/REC-SVG-20010904/DTD/svg10.dtd">
<svg version="1.0" xmlns="http://www.w3.org/2000/svg"
 width="640.000000pt" height="1280.000000pt" viewBox="0 0 640.000000 1280.000000"
 preserveAspectRatio="xMidYMid meet">
<metadata>
Created by potrace 1.15, written by Peter Selinger 2001-2017
</metadata>
<g transform="translate(0.000000,1280.000000) scale(0.100000,-0.100000)"
fill="#000000" stroke="none">
<path d="M3610 12784 c-148 -40 -334 -158 -471 -301 -166 -173 -197 -267 -178
-533 12 -176 30 -265 95 -473 20 -65 24 -99 24 -200 0 -200 -13 -277 -65 -401
-53 -128 -74 -164 -130 -228 -49 -54 -98 -172 -173 -413 -28 -88 -71 -226 -97
-308 -27 -88 -65 -182 -93 -235 -53 -97 -197 -392 -349 -716 l-99 -209 -94
-29 c-165 -50 -393 -126 -441 -146 -57 -25 -56 -19 -69 -292 -13 -283 -52
-538 -105 -695 -51 -152 -94 -294 -215 -714 l-110 -384 59 -66 c33 -36 100
-106 150 -156 l91 -90 802 -215 803 -215 42 -85 c23 -47 55 -99 72 -117 33
-37 45 -90 61 -293 21 -271 53 -896 54 -1085 l1 -200 -42 -162 c-24 -89 -77
-286 -118 -438 -67 -249 -75 -291 -85 -418 -12 -173 -36 -693 -49 -1107 -6
-168 -13 -364 -17 -435 -5 -128 -5 -133 24 -205 62 -158 75 -209 69 -270 -4
-32 -20 -95 -36 -140 -17 -45 -35 -116 -42 -158 -10 -68 -9 -92 11 -207 13
-76 37 -168 57 -221 l35 -92 51 -6 c29 -3 369 -33 757 -67 719 -62 837 -67
934 -39 80 24 105 82 71 164 -20 46 -33 54 -248 149 -185 81 -285 117 -437
158 -198 53 -240 89 -276 235 -18 73 -76 197 -118 253 -14 19 -26 41 -26 48 0
21 49 35 120 34 36 -1 138 12 228 28 168 31 236 57 330 128 102 77 95 209 -12
233 -23 5 -86 5 -150 -1 -123 -10 -486 -12 -509 -3 -13 5 -13 11 4 49 15 34
21 84 29 236 6 107 8 232 5 279 -4 51 0 149 9 245 9 88 23 243 32 345 15 178
18 191 70 342 29 87 73 231 98 320 49 181 54 204 125 503 27 116 85 345 129
510 174 651 234 900 247 1020 3 33 15 224 25 425 46 843 69 1087 120 1284 13
52 20 112 20 175 0 225 54 820 82 911 13 43 72 147 101 178 16 18 31 22 76 22
64 0 88 13 215 118 51 41 85 80 104 113 15 28 58 94 95 148 37 53 70 106 74
119 3 12 3 66 1 120 -5 112 -18 148 -85 222 -45 50 -45 50 -106 50 -34 0 -102
-7 -152 -15 -49 -8 -109 -15 -132 -15 -64 0 -130 -30 -257 -114 -64 -42 -119
-76 -124 -76 -5 0 -12 21 -15 48 -3 26 -19 91 -36 145 -17 53 -40 145 -51 203
-11 58 -38 149 -60 202 -39 95 -139 355 -185 481 -19 53 -23 76 -18 131 5 57
0 142 -32 520 -2 30 0 116 5 190 7 119 12 146 44 227 82 214 115 418 116 724
1 171 -4 199 -86 451 -54 166 -108 254 -232 378 -135 134 -207 160 -342 124z"/>
</g>
</svg>
